<mxfile host="app.diagrams.net" modified="2023-09-14T06:54:24.010Z" agent="Mozilla/5.0 (Windows NT 10.0; Win64; x64) AppleWebKit/537.36 (KHTML, like Gecko) Chrome/116.0.0.0 Safari/537.36 Edg/116.0.1938.76" etag="Gg1LH9LxopnnOb8XETJH" version="21.7.5" type="github">
  <diagram name="Page-1" id="ibPHxCdAj0cr2RXNomN6">
    <mxGraphModel dx="1002" dy="535" grid="0" gridSize="10" guides="1" tooltips="1" connect="1" arrows="1" fold="1" page="1" pageScale="1" pageWidth="850" pageHeight="1100" math="0" shadow="0">
      <root>
        <mxCell id="0" />
        <mxCell id="1" parent="0" />
        <mxCell id="e1wmPKHRekjsAvSdYV5s-4" value="Sinh viên&lt;br&gt;" style="shape=umlActor;verticalLabelPosition=bottom;verticalAlign=top;html=1;outlineConnect=0;" vertex="1" parent="1">
          <mxGeometry x="80" y="240" width="30" height="60" as="geometry" />
        </mxCell>
        <mxCell id="e1wmPKHRekjsAvSdYV5s-6" value="Giảng viên" style="shape=umlActor;verticalLabelPosition=bottom;verticalAlign=top;html=1;outlineConnect=0;" vertex="1" parent="1">
          <mxGeometry x="80" y="400" width="30" height="60" as="geometry" />
        </mxCell>
        <mxCell id="e1wmPKHRekjsAvSdYV5s-7" value="Admin&lt;br&gt;" style="shape=umlActor;verticalLabelPosition=bottom;verticalAlign=top;html=1;outlineConnect=0;" vertex="1" parent="1">
          <mxGeometry x="80" y="80" width="30" height="60" as="geometry" />
        </mxCell>
        <mxCell id="e1wmPKHRekjsAvSdYV5s-8" value="&lt;p class=&quot;MsoNormal&quot;&gt;&lt;span style=&quot;mso-spacerun:&#39;yes&#39;;font-family:&#39;Times New Roman&#39;;mso-fareast-font-family:等线;&#xa;font-size:13.0000pt;&quot;&gt;Đăng nhập&lt;/span&gt;&lt;span style=&quot;mso-spacerun:&#39;yes&#39;;font-family:&#39;Times New Roman&#39;;mso-fareast-font-family:等线;&#xa;font-size:13.0000pt;&quot;&gt;&lt;/span&gt;&lt;/p&gt;" style="ellipse;whiteSpace=wrap;html=1;" vertex="1" parent="1">
          <mxGeometry x="690" y="200" width="120" height="80" as="geometry" />
        </mxCell>
        <mxCell id="e1wmPKHRekjsAvSdYV5s-9" value="Tạo khảo sát" style="ellipse;whiteSpace=wrap;html=1;" vertex="1" parent="1">
          <mxGeometry x="290" y="40" width="120" height="80" as="geometry" />
        </mxCell>
        <mxCell id="e1wmPKHRekjsAvSdYV5s-10" value="Thực hiện khảo sát" style="ellipse;whiteSpace=wrap;html=1;" vertex="1" parent="1">
          <mxGeometry x="320" y="280" width="120" height="80" as="geometry" />
        </mxCell>
        <mxCell id="e1wmPKHRekjsAvSdYV5s-11" value="Xem kết quả khảo sát" style="ellipse;whiteSpace=wrap;html=1;" vertex="1" parent="1">
          <mxGeometry x="320" y="400" width="120" height="80" as="geometry" />
        </mxCell>
        <mxCell id="e1wmPKHRekjsAvSdYV5s-12" value="Xét duyệt thống kê bảo cáo tổng hợp" style="ellipse;whiteSpace=wrap;html=1;" vertex="1" parent="1">
          <mxGeometry x="310" y="160" width="120" height="80" as="geometry" />
        </mxCell>
        <mxCell id="e1wmPKHRekjsAvSdYV5s-14" value="" style="endArrow=none;html=1;rounded=0;" edge="1" parent="1" source="e1wmPKHRekjsAvSdYV5s-7" target="e1wmPKHRekjsAvSdYV5s-9">
          <mxGeometry width="50" height="50" relative="1" as="geometry">
            <mxPoint x="400" y="300" as="sourcePoint" />
            <mxPoint x="450" y="250" as="targetPoint" />
          </mxGeometry>
        </mxCell>
        <mxCell id="e1wmPKHRekjsAvSdYV5s-15" value="Includes" style="endArrow=block;endSize=16;endFill=0;html=1;rounded=0;entryX=0;entryY=0.5;entryDx=0;entryDy=0;exitX=1;exitY=0.5;exitDx=0;exitDy=0;" edge="1" parent="1" source="e1wmPKHRekjsAvSdYV5s-12" target="e1wmPKHRekjsAvSdYV5s-8">
          <mxGeometry width="160" relative="1" as="geometry">
            <mxPoint x="320.0011925822037" y="185.45762043271196" as="sourcePoint" />
            <mxPoint x="632.3699999999999" y="294.55" as="targetPoint" />
          </mxGeometry>
        </mxCell>
        <mxCell id="e1wmPKHRekjsAvSdYV5s-16" value="Includes" style="endArrow=block;endSize=16;endFill=0;html=1;rounded=0;entryX=0;entryY=1;entryDx=0;entryDy=0;exitX=1;exitY=0.5;exitDx=0;exitDy=0;" edge="1" parent="1" source="e1wmPKHRekjsAvSdYV5s-10" target="e1wmPKHRekjsAvSdYV5s-8">
          <mxGeometry width="160" relative="1" as="geometry">
            <mxPoint x="400" y="160" as="sourcePoint" />
            <mxPoint x="713" y="269" as="targetPoint" />
          </mxGeometry>
        </mxCell>
        <mxCell id="e1wmPKHRekjsAvSdYV5s-17" value="Includes" style="endArrow=block;endSize=16;endFill=0;html=1;rounded=0;entryX=0.5;entryY=1;entryDx=0;entryDy=0;exitX=1;exitY=0.5;exitDx=0;exitDy=0;" edge="1" parent="1" source="e1wmPKHRekjsAvSdYV5s-11" target="e1wmPKHRekjsAvSdYV5s-8">
          <mxGeometry width="160" relative="1" as="geometry">
            <mxPoint x="410" y="160" as="sourcePoint" />
            <mxPoint x="723" y="269" as="targetPoint" />
          </mxGeometry>
        </mxCell>
        <mxCell id="e1wmPKHRekjsAvSdYV5s-18" value="Includes" style="endArrow=block;endSize=16;endFill=0;html=1;rounded=0;entryX=0.073;entryY=0.195;entryDx=0;entryDy=0;entryPerimeter=0;exitX=1;exitY=0.5;exitDx=0;exitDy=0;" edge="1" parent="1" source="e1wmPKHRekjsAvSdYV5s-9" target="e1wmPKHRekjsAvSdYV5s-8">
          <mxGeometry width="160" relative="1" as="geometry">
            <mxPoint x="400" y="110" as="sourcePoint" />
            <mxPoint x="713" y="219" as="targetPoint" />
          </mxGeometry>
        </mxCell>
        <mxCell id="e1wmPKHRekjsAvSdYV5s-20" value="" style="endArrow=none;html=1;rounded=0;exitX=1;exitY=1;exitDx=0;exitDy=0;exitPerimeter=0;" edge="1" parent="1" source="e1wmPKHRekjsAvSdYV5s-6" target="e1wmPKHRekjsAvSdYV5s-11">
          <mxGeometry width="50" height="50" relative="1" as="geometry">
            <mxPoint x="400" y="300" as="sourcePoint" />
            <mxPoint x="450" y="250" as="targetPoint" />
          </mxGeometry>
        </mxCell>
        <mxCell id="e1wmPKHRekjsAvSdYV5s-22" value="" style="endArrow=none;html=1;rounded=0;exitX=0;exitY=0.5;exitDx=0;exitDy=0;entryX=1;entryY=0.3333333333333333;entryDx=0;entryDy=0;entryPerimeter=0;" edge="1" parent="1" source="e1wmPKHRekjsAvSdYV5s-10" target="e1wmPKHRekjsAvSdYV5s-4">
          <mxGeometry width="50" height="50" relative="1" as="geometry">
            <mxPoint x="400" y="300" as="sourcePoint" />
            <mxPoint x="450" y="250" as="targetPoint" />
          </mxGeometry>
        </mxCell>
        <mxCell id="e1wmPKHRekjsAvSdYV5s-23" value="" style="endArrow=none;html=1;rounded=0;exitX=0;exitY=0.5;exitDx=0;exitDy=0;entryX=1;entryY=1;entryDx=0;entryDy=0;entryPerimeter=0;" edge="1" parent="1" source="e1wmPKHRekjsAvSdYV5s-12" target="e1wmPKHRekjsAvSdYV5s-7">
          <mxGeometry width="50" height="50" relative="1" as="geometry">
            <mxPoint x="400" y="300" as="sourcePoint" />
            <mxPoint x="450" y="250" as="targetPoint" />
          </mxGeometry>
        </mxCell>
      </root>
    </mxGraphModel>
  </diagram>
</mxfile>
